<svg width="460" height="21" viewBox="0 0 460 21" fill="none" xmlns="http://www.w3.org/2000/svg">
<line y1="10" x2="208" y2="10" stroke="#E4E4E7"/>
<path d="M230.014 10.9091C230.014 11.983 229.82 12.911 229.433 13.6932C229.045 14.4754 228.513 15.0786 227.837 15.5028C227.161 15.9271 226.388 16.1392 225.52 16.1392C224.652 16.1392 223.879 15.9271 223.203 15.5028C222.527 15.0786 221.995 14.4754 221.607 13.6932C221.22 12.911 221.026 11.983 221.026 10.9091C221.026 9.83523 221.22 8.9072 221.607 8.125C221.995 7.3428 222.527 6.73958 223.203 6.31534C223.879 5.8911 224.652 5.67898 225.52 5.67898C226.388 5.67898 227.161 5.8911 227.837 6.31534C228.513 6.73958 229.045 7.3428 229.433 8.125C229.82 8.9072 230.014 9.83523 230.014 10.9091ZM228.821 10.9091C228.821 10.0275 228.674 9.28338 228.379 8.67685C228.087 8.07031 227.691 7.61127 227.19 7.29972C226.693 6.98816 226.136 6.83239 225.52 6.83239C224.903 6.83239 224.345 6.98816 223.845 7.29972C223.347 7.61127 222.951 8.07031 222.656 8.67685C222.365 9.28338 222.219 10.0275 222.219 10.9091C222.219 11.7907 222.365 12.5348 222.656 13.1413C222.951 13.7479 223.347 14.2069 223.845 14.5185C224.345 14.83 224.903 14.9858 225.52 14.9858C226.136 14.9858 226.693 14.83 227.19 14.5185C227.691 14.2069 228.087 13.7479 228.379 13.1413C228.674 12.5348 228.821 11.7907 228.821 10.9091ZM232.087 16V5.81818H235.528C236.323 5.81818 236.976 5.95407 237.487 6.22585C237.997 6.49432 238.375 6.86387 238.62 7.33452C238.865 7.80516 238.988 8.34044 238.988 8.94034C238.988 9.54025 238.865 10.0722 238.62 10.5362C238.375 11.0002 237.999 11.3648 237.492 11.63C236.984 11.8918 236.337 12.0227 235.548 12.0227H232.764V10.9091H235.508C236.051 10.9091 236.489 10.8295 236.82 10.6705C237.155 10.5114 237.397 10.286 237.546 9.99432C237.699 9.69934 237.775 9.34801 237.775 8.94034C237.775 8.53267 237.699 8.17637 237.546 7.87145C237.394 7.56652 237.15 7.3312 236.815 7.16548C236.481 6.99645 236.038 6.91193 235.488 6.91193H233.32V16H232.087ZM236.88 11.4261L239.386 16H237.954L235.488 11.4261H236.88Z" fill="#98989A"/>
<line x1="252" y1="10" x2="460" y2="10" stroke="#E4E4E7"/>
</svg>
